# xmcd CD database file
#
# Track frame offsets:
#	150
#	20310
#	47502
#	73497
#
# Disc length: 1305 seconds
#
# Revision: 6
# Processed by: cddbd v1.5.1PL0 Copyright (c) Steve Scherf et al.
# Submitted via: CDex 1.51
#
DISCID=30051704
DTITLE=Dragon Ash - morrow
DYEAR=2003
DGENRE=Pop
TTITLE0=morrow
TTITLE1=Life goes on (FPM Beautifl Lovers mix）
TTITLE2=Fantasista (Ram Jam World remix)
TTITLE3=morrow (DRY and HEAVY remix)
EXTD=YEAR: 2003
EXTT0=
EXTT1=
EXTT2=
EXTT3=
PLAYORDER=
